# xmcd
#
# Track frame offsets:
#	150
#	32572
#	72624
#	97949
#	117557
#	144030
#	175161
#	202576
#	234474
#	260470
#
# Disc length: 3938 seconds
#
# Revision: 1
# Processed by: cddbd v1.5.1PL0 Copyright (c) Steve Scherf et al.
# Submitted via: EasyCDDAExtractor 7.1.0.1
#
DISCID=7f0f600a
DTITLE=Maryam Heydarzadeh - Ya To Ya Hich Kas
DYEAR=1383
DGENRE=Speech
TTITLE0=Ya To Ya Hich Kas
TTITLE1=Yadeteh
TTITLE2=Baroon
TTITLE3=Bazam Nayoomadi
TTITLE4=Nameh
TTITLE5=Esfanj
TTITLE6=Yadameh
TTITLE7=Shabe Raftanet
TTITLE8=Nashod Ye Ghasri Besazam
TTITLE9=Lala'ee
EXTD=
EXTT0=
EXTT1=
EXTT2=
EXTT3=
EXTT4=
EXTT5=
EXTT6=
EXTT7=
EXTT8=
EXTT9=
PLAYORDER=
